<mxfile host="app.diagrams.net" modified="2020-06-01T08:41:10.151Z" agent="5.0 (Macintosh; Intel Mac OS X 10_15_5) AppleWebKit/605.1.15 (KHTML, like Gecko) Version/13.1.1 Safari/605.1.15" etag="uo9su8JkVNP8EYLwxGzI" version="13.1.5" type="github">
  <diagram id="whV7KSRVf2BIHIF4b7A5" name="Page-1">
    <mxGraphModel dx="1377" dy="801" grid="1" gridSize="10" guides="1" tooltips="1" connect="1" arrows="1" fold="1" page="1" pageScale="1" pageWidth="827" pageHeight="1169" math="0" shadow="0">
      <root>
        <mxCell id="0" />
        <mxCell id="1" parent="0" />
        <mxCell id="EIraJwJFfg53i6MhhseR-4" style="edgeStyle=orthogonalEdgeStyle;rounded=0;orthogonalLoop=1;jettySize=auto;html=1;exitX=1;exitY=0.5;exitDx=0;exitDy=0;entryX=0;entryY=0.5;entryDx=0;entryDy=0;" edge="1" parent="1" source="EIraJwJFfg53i6MhhseR-1" target="EIraJwJFfg53i6MhhseR-14">
          <mxGeometry relative="1" as="geometry">
            <mxPoint x="320" y="175" as="targetPoint" />
          </mxGeometry>
        </mxCell>
        <mxCell id="EIraJwJFfg53i6MhhseR-8" value="HTTP request" style="edgeLabel;html=1;align=center;verticalAlign=middle;resizable=0;points=[];" vertex="1" connectable="0" parent="EIraJwJFfg53i6MhhseR-4">
          <mxGeometry x="-0.1389" y="2" relative="1" as="geometry">
            <mxPoint x="4" y="-8" as="offset" />
          </mxGeometry>
        </mxCell>
        <mxCell id="EIraJwJFfg53i6MhhseR-1" value="Browser" style="rounded=1;whiteSpace=wrap;html=1;" vertex="1" parent="1">
          <mxGeometry x="80" y="160" width="120" height="60" as="geometry" />
        </mxCell>
        <mxCell id="EIraJwJFfg53i6MhhseR-6" style="edgeStyle=orthogonalEdgeStyle;rounded=0;orthogonalLoop=1;jettySize=auto;html=1;exitX=1;exitY=0.25;exitDx=0;exitDy=0;entryX=0;entryY=0.25;entryDx=0;entryDy=0;" edge="1" parent="1" target="EIraJwJFfg53i6MhhseR-3">
          <mxGeometry relative="1" as="geometry">
            <mxPoint x="680" y="215" as="sourcePoint" />
          </mxGeometry>
        </mxCell>
        <mxCell id="EIraJwJFfg53i6MhhseR-10" value="SQL Query" style="edgeLabel;html=1;align=center;verticalAlign=middle;resizable=0;points=[];" vertex="1" connectable="0" parent="EIraJwJFfg53i6MhhseR-6">
          <mxGeometry x="-0.1167" y="1" relative="1" as="geometry">
            <mxPoint x="12" y="-14" as="offset" />
          </mxGeometry>
        </mxCell>
        <mxCell id="EIraJwJFfg53i6MhhseR-7" style="edgeStyle=orthogonalEdgeStyle;rounded=0;orthogonalLoop=1;jettySize=auto;html=1;exitX=0;exitY=0.75;exitDx=0;exitDy=0;entryX=1;entryY=0.75;entryDx=0;entryDy=0;" edge="1" parent="1" source="EIraJwJFfg53i6MhhseR-3">
          <mxGeometry relative="1" as="geometry">
            <mxPoint x="680" y="245" as="targetPoint" />
          </mxGeometry>
        </mxCell>
        <mxCell id="EIraJwJFfg53i6MhhseR-12" value="SQL Result" style="edgeLabel;html=1;align=center;verticalAlign=middle;resizable=0;points=[];" vertex="1" connectable="0" parent="EIraJwJFfg53i6MhhseR-7">
          <mxGeometry x="0.0056" relative="1" as="geometry">
            <mxPoint y="15" as="offset" />
          </mxGeometry>
        </mxCell>
        <mxCell id="EIraJwJFfg53i6MhhseR-3" value="Database" style="rounded=1;whiteSpace=wrap;html=1;" vertex="1" parent="1">
          <mxGeometry x="880" y="200" width="120" height="60" as="geometry" />
        </mxCell>
        <mxCell id="EIraJwJFfg53i6MhhseR-17" style="edgeStyle=orthogonalEdgeStyle;rounded=1;orthogonalLoop=1;jettySize=auto;html=1;exitX=1;exitY=0.25;exitDx=0;exitDy=0;entryX=0;entryY=0.75;entryDx=0;entryDy=0;" edge="1" parent="1" source="EIraJwJFfg53i6MhhseR-14" target="EIraJwJFfg53i6MhhseR-15">
          <mxGeometry relative="1" as="geometry" />
        </mxCell>
        <mxCell id="EIraJwJFfg53i6MhhseR-18" style="edgeStyle=orthogonalEdgeStyle;rounded=1;orthogonalLoop=1;jettySize=auto;html=1;exitX=1;exitY=0.75;exitDx=0;exitDy=0;entryX=0;entryY=0.25;entryDx=0;entryDy=0;" edge="1" parent="1" source="EIraJwJFfg53i6MhhseR-14" target="EIraJwJFfg53i6MhhseR-16">
          <mxGeometry relative="1" as="geometry" />
        </mxCell>
        <mxCell id="EIraJwJFfg53i6MhhseR-14" value="Router" style="rounded=1;whiteSpace=wrap;html=1;fillColor=#ffffff;" vertex="1" parent="1">
          <mxGeometry x="400" y="160" width="120" height="60" as="geometry" />
        </mxCell>
        <mxCell id="EIraJwJFfg53i6MhhseR-19" style="edgeStyle=orthogonalEdgeStyle;rounded=1;orthogonalLoop=1;jettySize=auto;html=1;exitX=0;exitY=0.25;exitDx=0;exitDy=0;entryX=0.75;entryY=0;entryDx=0;entryDy=0;" edge="1" parent="1" source="EIraJwJFfg53i6MhhseR-15" target="EIraJwJFfg53i6MhhseR-1">
          <mxGeometry relative="1" as="geometry" />
        </mxCell>
        <mxCell id="EIraJwJFfg53i6MhhseR-21" value="HTML/CSS/JS" style="edgeLabel;html=1;align=center;verticalAlign=middle;resizable=0;points=[];" vertex="1" connectable="0" parent="EIraJwJFfg53i6MhhseR-19">
          <mxGeometry x="-0.2145" y="1" relative="1" as="geometry">
            <mxPoint x="-107.33" y="-16" as="offset" />
          </mxGeometry>
        </mxCell>
        <mxCell id="EIraJwJFfg53i6MhhseR-15" value="Static assets" style="rounded=1;whiteSpace=wrap;html=1;fillColor=#ffffff;" vertex="1" parent="1">
          <mxGeometry x="560" y="120" width="120" height="60" as="geometry" />
        </mxCell>
        <mxCell id="EIraJwJFfg53i6MhhseR-20" style="edgeStyle=orthogonalEdgeStyle;rounded=1;orthogonalLoop=1;jettySize=auto;html=1;exitX=0;exitY=0.75;exitDx=0;exitDy=0;entryX=0.75;entryY=1;entryDx=0;entryDy=0;" edge="1" parent="1" source="EIraJwJFfg53i6MhhseR-16" target="EIraJwJFfg53i6MhhseR-1">
          <mxGeometry relative="1" as="geometry" />
        </mxCell>
        <mxCell id="EIraJwJFfg53i6MhhseR-22" value="JSON" style="edgeLabel;html=1;align=center;verticalAlign=middle;resizable=0;points=[];" vertex="1" connectable="0" parent="EIraJwJFfg53i6MhhseR-20">
          <mxGeometry x="-0.0699" y="-1" relative="1" as="geometry">
            <mxPoint x="-77.33" y="-14" as="offset" />
          </mxGeometry>
        </mxCell>
        <mxCell id="EIraJwJFfg53i6MhhseR-16" value="Web application API" style="rounded=1;whiteSpace=wrap;html=1;fillColor=#ffffff;" vertex="1" parent="1">
          <mxGeometry x="560" y="200" width="120" height="60" as="geometry" />
        </mxCell>
        <mxCell id="EIraJwJFfg53i6MhhseR-23" value="" style="rounded=0;whiteSpace=wrap;html=1;fillColor=none;dashed=1;strokeColor=#FF8000;" vertex="1" parent="1">
          <mxGeometry x="70" y="100" width="140" height="180" as="geometry" />
        </mxCell>
        <mxCell id="EIraJwJFfg53i6MhhseR-24" value="" style="rounded=0;whiteSpace=wrap;html=1;dashed=1;fillColor=none;strokeColor=#00CC00;" vertex="1" parent="1">
          <mxGeometry x="380" y="100" width="320" height="180" as="geometry" />
        </mxCell>
        <mxCell id="EIraJwJFfg53i6MhhseR-25" value="" style="rounded=0;whiteSpace=wrap;html=1;dashed=1;fillColor=none;strokeColor=#0066CC;" vertex="1" parent="1">
          <mxGeometry x="860" y="180" width="160" height="100" as="geometry" />
        </mxCell>
        <mxCell id="EIraJwJFfg53i6MhhseR-26" value="Presentaton&amp;nbsp;layer" style="text;html=1;strokeColor=none;fillColor=none;align=center;verticalAlign=middle;whiteSpace=wrap;rounded=0;dashed=1;opacity=25;" vertex="1" parent="1">
          <mxGeometry x="85" y="290" width="110" height="20" as="geometry" />
        </mxCell>
        <mxCell id="EIraJwJFfg53i6MhhseR-27" value="Application layer" style="text;html=1;strokeColor=none;fillColor=none;align=center;verticalAlign=middle;whiteSpace=wrap;rounded=0;dashed=1;opacity=25;" vertex="1" parent="1">
          <mxGeometry x="485" y="290" width="110" height="20" as="geometry" />
        </mxCell>
        <mxCell id="EIraJwJFfg53i6MhhseR-28" value="Data layer" style="text;html=1;strokeColor=none;fillColor=none;align=center;verticalAlign=middle;whiteSpace=wrap;rounded=0;dashed=1;opacity=25;" vertex="1" parent="1">
          <mxGeometry x="885" y="290" width="110" height="20" as="geometry" />
        </mxCell>
      </root>
    </mxGraphModel>
  </diagram>
</mxfile>
